<svg width="328" height="328" viewBox="0 0 328 328" fill="none" xmlns="http://www.w3.org/2000/svg">
<rect width="328" height="328" fill="white"/>
<path d="M131.062 108V155.177H135.333V108H131.062ZM110.698 111.621C103.771 111.621 98.8229 118.023 98.8229 128.046C98.8229 138.069 103.771 144.471 110.698 144.471C117.625 144.471 122.572 138.069 122.572 128.046C122.572 118.023 117.625 111.621 110.698 111.621ZM110.698 115.504C115.229 115.504 118.458 120.437 118.458 128.046C118.458 135.708 115.229 140.641 110.698 140.641C106.114 140.641 102.885 135.708 102.885 128.046C102.885 120.437 106.114 115.504 110.698 115.504Z" fill="#BFC9D4"/>
<path d="M145.641 112.618V143.212H167.099V112.618H145.641ZM162.932 116.081V139.801H149.808V116.081H162.932ZM176.89 108V155.177H181.161V108H176.89Z" fill="#BFC9D4"/>
<path d="M205.428 116.396H216.417V112.828H190.324V116.396H201.157V122.379C201.157 130.513 195.48 139.381 188.761 142.582L191.261 146.046C196.574 143.317 201.157 137.387 203.292 130.513C205.532 136.967 210.115 142.372 215.532 144.891L217.927 141.428C211.052 138.489 205.428 130.355 205.428 122.379V116.396ZM222.719 108.052V155.072H226.99V108.052H222.719Z" fill="#BFC9D4"/>
<path d="M101.271 197.709C108.823 196.555 115.698 192.776 118.25 187.319C120.75 192.776 127.624 196.555 135.229 197.709L136.791 194.246C128.562 193.144 121.01 188.473 121.01 182.753V182.701H135.541V179.237H100.958V182.701H115.489V182.753C115.489 188.473 107.937 193.144 99.6562 194.246L101.271 197.709ZM106.687 209.569H102.417V222.898H134.708V219.382H106.687V209.569ZM97 201.12V204.584H116.427V214.134H120.698V204.584H139.395V201.12H97Z" fill="#BFC9D4"/>
<path d="M176.89 176.876V224H181.161V176.876H176.89ZM145.589 180.864V212.613H167.568V180.864H163.349V193.301H149.808V180.864H145.589ZM149.808 196.712H163.349V209.097H149.808V196.712Z" fill="#BFC9D4"/>
<path d="M192.667 196.082C200.323 195.138 207.355 191.674 209.907 186.479C212.511 191.674 219.49 195.138 227.146 196.082L228.656 192.671C220.479 191.727 213.032 187.686 212.667 182.491H227.198V179.027H192.667V182.491H207.146C206.782 187.686 199.334 191.727 191.157 192.671L192.667 196.082ZM221.521 215.604C221.521 218.752 217.146 220.589 209.855 220.589C202.511 220.589 198.188 218.752 198.188 215.604C198.188 212.455 202.511 210.671 209.855 210.671C217.146 210.671 221.521 212.455 221.521 215.604ZM231 202.38V198.916H188.761V202.38H207.719V207.417C199.021 207.837 193.865 210.723 193.865 215.604C193.865 220.956 199.907 223.895 209.907 223.895C219.854 223.895 225.844 220.956 225.844 215.604C225.844 210.723 220.74 207.837 212.042 207.417V202.38H231Z" fill="#BFC9D4"/>
</svg>
