<svg width="61" height="24" viewBox="0 0 61 24" fill="none" xmlns="http://www.w3.org/2000/svg">
<path d="M0 0H56C58.7614 0 61 2.23858 61 5V19C61 21.7614 58.7614 24 56 24H0V0Z" fill="#152951"/>
<path d="M8.97019 9.11H12.2322V7.934H7.55619V16.068H8.39619C10.1742 16.068 11.4762 16.012 13.0022 15.718L12.8762 14.528C11.5742 14.794 10.4262 14.864 8.97019 14.878V9.11ZM16.5442 6.422V11.42H15.0462V6.688H13.6882V18.448H15.0462V12.596H16.5442V19.064H17.9162V6.422H16.5442ZM23.3471 13.716H25.8391V16.432H23.3471V13.716ZM23.1371 8.69H26.0491V12.554H23.1371V8.69ZM27.2671 16.432V13.716H29.2971V12.554H27.4771V8.69H29.3391V7.528H19.8331V8.69H21.6951V12.554H19.8751V13.716H21.9051V16.432H18.8951V17.622H30.3611V16.432H27.2671ZM34.602 14.64H32.418V8.97H34.602V14.64ZM37.542 11.126H35.946V7.822H31.074V15.788H35.946V12.302H37.542V18.476H38.886V6.674H37.542V11.126ZM40.076 6.436V19.064H41.448V6.436H40.076ZM52.5349 10.566H45.2829V7.038H43.8269V11.742H52.5349V10.566ZM53.8509 13.366H42.4129V14.542H45.2129V19.092H46.6549V14.542H49.5949V19.092H51.0369V14.542H53.8509V13.366Z" fill="white"/>
</svg>
