<svg width="53" height="27" viewBox="0 0 53 27" fill="none" xmlns="http://www.w3.org/2000/svg">
<rect width="53" height="27" rx="5" fill="#284A6E"/>
<path d="M14.4533 12.688C16.9973 12.416 18.9813 11.392 19.7653 9.904C20.5333 11.392 22.5173 12.416 25.0613 12.688L25.6533 11.408C22.9653 11.136 21.1093 10.016 20.8853 8.736H25.1093V7.408H14.4373V8.736H18.6293C18.3893 10.016 16.5493 11.136 13.8773 11.408L14.4533 12.688ZM19.7333 19.968C17.6053 19.968 16.4373 19.552 16.4373 18.704C16.4373 17.872 17.6053 17.44 19.7333 17.44C21.8613 17.44 23.0453 17.872 23.0453 18.704C23.0453 19.552 21.8613 19.968 19.7333 19.968ZM19.7333 16.176C16.6293 16.176 14.7573 17.088 14.7573 18.704C14.7573 20.32 16.6293 21.232 19.7333 21.232C22.8533 21.232 24.7093 20.32 24.7093 18.704C24.7093 17.088 22.8533 16.176 19.7333 16.176ZM20.5653 13.856V11.92H18.9173V13.856H13.2213V15.184H26.2933V13.856H20.5653ZM31.812 15.68H34.772V18.176H31.812V15.68ZM36.404 18.176V15.68H38.532V14.352H29.876V12.352H38.212V7.792H28.228V9.12H36.58V11.04H28.26V15.68H30.18V18.176H26.676V19.536H39.764V18.176H36.404Z" fill="white"/>
</svg>
