<svg width="54" height="27" viewBox="0 0 54 27" fill="none" xmlns="http://www.w3.org/2000/svg">
<rect width="54" height="27" rx="5" fill="#01909E"/>
<path d="M17.2899 6.688V21.344H18.9699V6.688H17.2899ZM11.1779 7.776C9.00188 7.776 7.41788 9.776 7.41788 12.928C7.41788 16.08 9.00188 18.096 11.1779 18.096C13.3699 18.096 14.9539 16.08 14.9539 12.928C14.9539 9.776 13.3699 7.776 11.1779 7.776ZM11.1779 9.296C12.4579 9.296 13.3379 10.656 13.3379 12.928C13.3379 15.216 12.4579 16.592 11.1779 16.592C9.89788 16.592 9.01788 15.216 9.01788 12.928C9.01788 10.656 9.89788 9.296 11.1779 9.296ZM31.1606 6.704V17.776H32.7446V6.704H31.1606ZM26.2006 10.848V12.208H28.7766V10.848H26.2006ZM28.2966 6.976V17.344H29.8806V6.976H28.2966ZM20.9526 7.856V15.12H26.6646V7.856H25.0966V10.208H22.5366V7.856H20.9526ZM22.5366 11.504H25.0966V13.776H22.5366V11.504ZM23.0806 19.68V21.04H33.1606V19.68H23.0806ZM23.0806 16.304V20.448H24.7606V16.304H23.0806ZM35.4474 14.432V15.76H45.5914V14.432H35.4474ZM33.8154 18.16V19.536H47.0634V18.16H33.8154ZM35.4474 7.872V14.816H37.1434V9.232H45.4474V7.872H35.4474ZM36.6154 11.12V12.432H45.1274V11.12H36.6154Z" fill="white"/>
</svg>
