<svg width="45" height="24" viewBox="0 0 45 24" fill="none" xmlns="http://www.w3.org/2000/svg">
<path d="M0 0H35C40.5228 0 45 4.47715 45 10V24H10C4.47715 24 0 19.5228 0 14V0Z" fill="#152951"/>
<path d="M20.3311 6.366V19.162H21.7311V6.366H20.3311ZM18.3711 11.406V12.596H20.6811V11.406H18.3711ZM17.4471 6.618V18.532H18.8051V6.618H17.4471ZM11.2311 14.906V16.124H12.0991C13.8911 16.124 15.2071 16.068 16.7471 15.76L16.6211 14.556C15.1231 14.85 13.8351 14.906 12.0991 14.906H11.2311ZM11.2311 7.892V15.48H12.6871V9.082H15.9771V7.892H11.2311ZM25.622 13.31V16.866H27.092V13.31H25.622ZM29.598 13.324V16.88H31.054V13.324H29.598ZM22.584 16.474V17.678H34.176V16.474H22.584ZM23.536 7.472V8.662H33.14V7.472H23.536ZM23.578 12.554V13.73H33.112V12.554H23.578ZM25.412 8.438V12.764H26.882V8.438H25.412ZM29.808 8.438V12.764H31.264V8.438H29.808Z" fill="white"/>
</svg>
