<svg width="65" height="24" viewBox="0 0 65 24" fill="none" xmlns="http://www.w3.org/2000/svg">
<path d="M0 0H55C60.5228 0 65 4.47715 65 10V24H10C4.47715 24 0 19.5228 0 14V0Z" fill="#152951"/>
<path d="M18.5722 5.366V18.162H19.9722V5.366H18.5722ZM16.6122 10.406V11.596H18.9222V10.406H16.6122ZM15.6882 5.618V17.532H17.0462V5.618H15.6882ZM9.47219 13.906V15.124H10.3402C12.1322 15.124 13.4482 15.068 14.9882 14.76L14.8622 13.556C13.3642 13.85 12.0762 13.906 10.3402 13.906H9.47219ZM9.47219 6.892V14.48H10.9282V8.082H14.2182V6.892H9.47219ZM23.8631 12.31V15.866H25.3331V12.31H23.8631ZM27.8391 12.324V15.88H29.2951V12.324H27.8391ZM20.8251 15.474V16.678H32.4171V15.474H20.8251ZM21.7771 6.472V7.662H31.3811V6.472H21.7771ZM21.8191 11.554V12.73H31.3531V11.554H21.8191ZM23.6531 7.438V11.764H25.1231V7.438H23.6531ZM28.0491 7.438V11.764H29.5051V7.438H28.0491ZM32.99 6.766V14.83H37.946V6.766H32.99ZM36.574 7.928V13.682H34.362V7.928H36.574ZM42.104 5.366V18.162H43.504V5.366H42.104ZM37.204 10.112V11.302H40.116V10.112H37.204ZM39.528 5.604V17.546H40.914V5.604H39.528ZM45.7709 9.552V10.742H54.5769V9.552H45.7709ZM45.7709 5.982V10.098H47.2409V5.982H45.7709ZM44.3429 12.38V13.57H55.9069V12.38H44.3429ZM47.1709 12.814V18.162H48.6269V12.814H47.1709ZM51.6089 12.814V18.162H53.0649V12.814H51.6089Z" fill="white"/>
</svg>
