<svg width="53" height="27" viewBox="0 0 53 27" fill="none" xmlns="http://www.w3.org/2000/svg">
<rect width="53" height="27" rx="5" fill="#00A8B9"/>
<path d="M22.8853 6.672V14.672H24.5653V6.672H22.8853ZM23.8773 10.016V11.392H26.6293V10.016H23.8773ZM15.1253 15.344V16.576H22.9173V17.632H15.1413V20.368H16.8053V18.8H24.5653V15.344H15.1253ZM15.1413 19.936V21.2H25.0453V19.936H15.1413ZM13.1733 7.92V9.2H21.7813V7.92H13.1733ZM17.4773 9.712C15.3333 9.712 13.9253 10.64 13.9253 12.112C13.9253 13.584 15.3333 14.496 17.4773 14.496C19.6213 14.496 21.0133 13.584 21.0133 12.112C21.0133 10.64 19.6213 9.712 17.4773 9.712ZM17.4773 10.912C18.6613 10.912 19.4133 11.36 19.4133 12.112C19.4133 12.848 18.6613 13.296 17.4773 13.296C16.2933 13.296 15.5413 12.848 15.5413 12.112C15.5413 11.36 16.2933 10.912 17.4773 10.912ZM16.6453 6.576V8.816H18.3093V6.576H16.6453ZM36.964 6.72V17.312H38.644V6.72H36.964ZM29.092 19.68V21.04H39.06V19.68H29.092ZM29.092 16.24V20.192H30.772V16.24H29.092ZM30.756 7.696C28.548 7.696 26.868 9.2 26.868 11.344C26.868 13.456 28.548 14.992 30.756 14.992C32.964 14.992 34.628 13.456 34.628 11.344C34.628 9.2 32.964 7.696 30.756 7.696ZM30.756 9.136C32.036 9.136 32.996 10 32.996 11.344C32.996 12.656 32.036 13.52 30.756 13.52C29.476 13.52 28.5 12.656 28.5 11.344C28.5 10 29.476 9.136 30.756 9.136Z" fill="white"/>
</svg>
