<svg width="100" height="100" viewBox="0 0 100 100" fill="none" xmlns="http://www.w3.org/2000/svg">
<rect width="100" height="100" fill="white"/>
<path d="M39.28 32.832V47.216H40.592V32.832H39.28ZM33.024 33.936C30.896 33.936 29.376 35.888 29.376 38.944C29.376 42 30.896 43.952 33.024 43.952C35.152 43.952 36.672 42 36.672 38.944C36.672 35.888 35.152 33.936 33.024 33.936ZM33.024 35.12C34.416 35.12 35.408 36.624 35.408 38.944C35.408 41.28 34.416 42.784 33.024 42.784C31.616 42.784 30.624 41.28 30.624 38.944C30.624 36.624 31.616 35.12 33.024 35.12ZM43.7587 34.24V43.568H50.3507V34.24H43.7587ZM49.0707 35.296V42.528H45.0387V35.296H49.0707ZM53.3588 32.832V47.216H54.6708V32.832H53.3588ZM62.1255 35.392H65.5015V34.304H57.4855V35.392H60.8135V37.216C60.8135 39.696 59.0695 42.4 57.0055 43.376L57.7735 44.432C59.4055 43.6 60.8135 41.792 61.4695 39.696C62.1575 41.664 63.5655 43.312 65.2295 44.08L65.9655 43.024C63.8535 42.128 62.1255 39.648 62.1255 37.216V35.392ZM67.4375 32.848V47.184H68.7495V32.848H67.4375ZM30.128 60.184C32.448 59.832 34.56 58.68 35.344 57.016C36.112 58.68 38.224 59.832 40.56 60.184L41.04 59.128C38.512 58.792 36.192 57.368 36.192 55.624V55.608H40.656V54.552H30.032V55.608H34.496V55.624C34.496 57.368 32.176 58.792 29.632 59.128L30.128 60.184ZM31.792 63.8H30.48V67.864H40.4V66.792H31.792V63.8ZM28.816 61.224V62.28H34.784V65.192H36.096V62.28H41.84V61.224H28.816ZM53.3588 53.832V68.2H54.6708V53.832H53.3588ZM43.7427 55.048V64.728H50.4948V55.048H49.1988V58.84H45.0387V55.048H43.7427ZM45.0387 59.88H49.1988V63.656H45.0387V59.88ZM58.2055 59.688C60.5575 59.4 62.7175 58.344 63.5015 56.76C64.3015 58.344 66.4455 59.4 68.7975 59.688L69.2615 58.648C66.7495 58.36 64.4615 57.128 64.3495 55.544H68.8135V54.488H58.2055V55.544H62.6535C62.5415 57.128 60.2535 58.36 57.7415 58.648L58.2055 59.688ZM67.0695 65.64C67.0695 66.6 65.7255 67.16 63.4855 67.16C61.2295 67.16 59.9015 66.6 59.9015 65.64C59.9015 64.68 61.2295 64.136 63.4855 64.136C65.7255 64.136 67.0695 64.68 67.0695 65.64ZM69.9815 61.608V60.552H57.0055V61.608H62.8295V63.144C60.1575 63.272 58.5735 64.152 58.5735 65.64C58.5735 67.272 60.4295 68.168 63.5015 68.168C66.5575 68.168 68.3975 67.272 68.3975 65.64C68.3975 64.152 66.8295 63.272 64.1575 63.144V61.608H69.9815Z" fill="#BFC9D4"/>
</svg>
